<mxfile host="65bd71144e">
    <diagram id="YPMh8q-z0V3D6C1iWZfI" name="Page-1">
        <mxGraphModel dx="974" dy="469" grid="1" gridSize="10" guides="1" tooltips="1" connect="1" arrows="1" fold="1" page="1" pageScale="1" pageWidth="850" pageHeight="1100" math="0" shadow="0">
            <root>
                <mxCell id="0"/>
                <mxCell id="1" parent="0"/>
                <mxCell id="2" value="" style="whiteSpace=wrap;html=1;aspect=fixed;strokeColor=#FFFFFF;fillColor=#FFFFFF;" parent="1" vertex="1">
                    <mxGeometry x="40" y="40" width="560" height="560" as="geometry"/>
                </mxCell>
                <mxCell id="8" value="" style="rounded=0;whiteSpace=wrap;html=1;strokeColor=none;fillColor=#AB3FAB;" parent="1" vertex="1">
                    <mxGeometry x="40" y="30" width="560" height="290" as="geometry"/>
                </mxCell>
                <mxCell id="9" value="&lt;font style=&quot;font-size: 24px&quot;&gt;&lt;b&gt;Welcome&amp;nbsp;&lt;br&gt;my name is Doaa. i'm a front end developer&lt;/b&gt;&lt;/font&gt;" style="text;html=1;strokeColor=none;fillColor=none;align=center;verticalAlign=middle;whiteSpace=wrap;rounded=0;" parent="1" vertex="1">
                    <mxGeometry x="100" y="115" width="430" height="140" as="geometry"/>
                </mxCell>
                <mxCell id="14" value="&lt;h2&gt;&lt;span style=&quot;background-color: rgb(171 , 63 , 171)&quot;&gt;&lt;font style=&quot;font-size: 24px&quot;&gt;&amp;gt;&amp;gt;&lt;/font&gt;&lt;/span&gt;&lt;/h2&gt;" style="rounded=1;whiteSpace=wrap;html=1;fontSize=36;strokeColor=#FAFAFA;fillColor=#AB3FAB;rotation=90;align=center;arcSize=50;" parent="1" vertex="1">
                    <mxGeometry x="300" y="242.81" width="40" height="87.19" as="geometry"/>
                </mxCell>
                <mxCell id="21" style="edgeStyle=none;html=1;fontSize=24;fontColor=#121212;" parent="1" target="8" edge="1">
                    <mxGeometry relative="1" as="geometry">
                        <mxPoint x="65" y="195" as="sourcePoint"/>
                    </mxGeometry>
                </mxCell>
                <mxCell id="15" value="&lt;font color=&quot;#121212&quot;&gt;F&lt;/font&gt;" style="ellipse;whiteSpace=wrap;html=1;aspect=fixed;fontSize=24;strokeColor=#FAFAFA;fillColor=#CCCCCC;" parent="1" vertex="1">
                    <mxGeometry x="50" y="200" width="30" height="30" as="geometry"/>
                </mxCell>
                <mxCell id="16" value="&lt;font color=&quot;#121212&quot;&gt;T&lt;/font&gt;" style="ellipse;whiteSpace=wrap;html=1;aspect=fixed;fontSize=24;strokeColor=#FAFAFA;fillColor=#CCCCCC;" parent="1" vertex="1">
                    <mxGeometry x="50" y="242.81" width="30" height="30" as="geometry"/>
                </mxCell>
                <mxCell id="17" value="&lt;font color=&quot;#121212&quot;&gt;In&lt;/font&gt;" style="ellipse;whiteSpace=wrap;html=1;aspect=fixed;fontSize=24;strokeColor=#FAFAFA;fillColor=#CCCCCC;" parent="1" vertex="1">
                    <mxGeometry x="50" y="290" width="30" height="30" as="geometry"/>
                </mxCell>
                <mxCell id="18" value="&lt;font color=&quot;#121212&quot;&gt;@&lt;/font&gt;" style="ellipse;whiteSpace=wrap;html=1;aspect=fixed;fontSize=24;strokeColor=#FAFAFA;fillColor=#CCCCCC;" parent="1" vertex="1">
                    <mxGeometry x="50" y="330" width="30" height="30" as="geometry"/>
                </mxCell>
                <mxCell id="19" value="&lt;font color=&quot;#121212&quot;&gt;G&lt;/font&gt;" style="ellipse;whiteSpace=wrap;html=1;aspect=fixed;fontSize=24;strokeColor=#FAFAFA;fillColor=#CCCCCC;" parent="1" vertex="1">
                    <mxGeometry x="50" y="370" width="30" height="30" as="geometry"/>
                </mxCell>
                <mxCell id="20" value="&lt;font color=&quot;#121212&quot;&gt;Be&lt;/font&gt;" style="ellipse;whiteSpace=wrap;html=1;aspect=fixed;fontSize=24;strokeColor=#FAFAFA;fillColor=#CCCCCC;" parent="1" vertex="1">
                    <mxGeometry x="50" y="410" width="30" height="30" as="geometry"/>
                </mxCell>
                <mxCell id="23" value="" style="rounded=0;whiteSpace=wrap;html=1;fontSize=24;fontColor=#121212;strokeColor=#FAFAFA;fillColor=#CCE5FF;" parent="1" vertex="1">
                    <mxGeometry x="110" y="380" width="420" height="210" as="geometry"/>
                </mxCell>
                <mxCell id="26" value="&lt;span&gt;Resume&amp;nbsp; &amp;nbsp; &amp;nbsp;About&amp;nbsp; &amp;nbsp; &amp;nbsp; Skills&amp;nbsp; &amp;nbsp; Project&lt;/span&gt;" style="rounded=1;whiteSpace=wrap;html=1;fontSize=24;fontColor=#121212;strokeColor=#FAFAFA;fillColor=#FFFFFF;arcSize=46;" parent="1" vertex="1">
                    <mxGeometry x="90" y="40" width="440" height="50" as="geometry"/>
                </mxCell>
            </root>
        </mxGraphModel>
    </diagram>
</mxfile>